<mxfile host="app.diagrams.net" agent="Mozilla/5.0 (Macintosh; Intel Mac OS X 10_15_7) AppleWebKit/537.36 (KHTML, like Gecko) Chrome/136.0.0.0 Safari/537.36" version="27.1.6">
  <diagram name="第 1 页" id="hwQGvMc1-kMtQUXvw_tj">
    <mxGraphModel dx="1997" dy="676" grid="1" gridSize="10" guides="1" tooltips="1" connect="1" arrows="1" fold="1" page="1" pageScale="1" pageWidth="827" pageHeight="1169" math="0" shadow="0">
      <root>
        <mxCell id="0" />
        <mxCell id="1" parent="0" />
        <mxCell id="Qv5NDMWRORHwQcXMOr7v-5" value="" style="edgeStyle=orthogonalEdgeStyle;rounded=0;orthogonalLoop=1;jettySize=auto;html=1;" edge="1" parent="1" source="Qv5NDMWRORHwQcXMOr7v-1" target="Qv5NDMWRORHwQcXMOr7v-4">
          <mxGeometry relative="1" as="geometry" />
        </mxCell>
        <mxCell id="Qv5NDMWRORHwQcXMOr7v-1" value="开始插入" style="rounded=1;whiteSpace=wrap;html=1;" vertex="1" parent="1">
          <mxGeometry x="170" y="160" width="120" height="60" as="geometry" />
        </mxCell>
        <mxCell id="Qv5NDMWRORHwQcXMOr7v-7" value="" style="edgeStyle=orthogonalEdgeStyle;rounded=0;orthogonalLoop=1;jettySize=auto;html=1;" edge="1" parent="1" source="Qv5NDMWRORHwQcXMOr7v-4" target="Qv5NDMWRORHwQcXMOr7v-6">
          <mxGeometry relative="1" as="geometry" />
        </mxCell>
        <mxCell id="Qv5NDMWRORHwQcXMOr7v-8" value="是" style="edgeLabel;html=1;align=center;verticalAlign=middle;resizable=0;points=[];" vertex="1" connectable="0" parent="Qv5NDMWRORHwQcXMOr7v-7">
          <mxGeometry x="-0.0545" y="2" relative="1" as="geometry">
            <mxPoint x="-3" y="-2" as="offset" />
          </mxGeometry>
        </mxCell>
        <mxCell id="Qv5NDMWRORHwQcXMOr7v-10" value="" style="edgeStyle=orthogonalEdgeStyle;rounded=0;orthogonalLoop=1;jettySize=auto;html=1;" edge="1" parent="1" source="Qv5NDMWRORHwQcXMOr7v-4" target="Qv5NDMWRORHwQcXMOr7v-9">
          <mxGeometry relative="1" as="geometry" />
        </mxCell>
        <mxCell id="Qv5NDMWRORHwQcXMOr7v-28" value="否" style="edgeLabel;html=1;align=center;verticalAlign=middle;resizable=0;points=[];" vertex="1" connectable="0" parent="Qv5NDMWRORHwQcXMOr7v-10">
          <mxGeometry x="-0.0818" y="1" relative="1" as="geometry">
            <mxPoint x="-2" y="1" as="offset" />
          </mxGeometry>
        </mxCell>
        <mxCell id="Qv5NDMWRORHwQcXMOr7v-4" value="数组是否为空" style="rhombus;whiteSpace=wrap;html=1;rounded=1;" vertex="1" parent="1">
          <mxGeometry x="140" y="290" width="180" height="50" as="geometry" />
        </mxCell>
        <mxCell id="Qv5NDMWRORHwQcXMOr7v-6" value="初始化数组" style="whiteSpace=wrap;html=1;rounded=1;" vertex="1" parent="1">
          <mxGeometry x="-90" y="285" width="120" height="60" as="geometry" />
        </mxCell>
        <mxCell id="Qv5NDMWRORHwQcXMOr7v-12" value="" style="edgeStyle=orthogonalEdgeStyle;rounded=0;orthogonalLoop=1;jettySize=auto;html=1;" edge="1" parent="1" source="Qv5NDMWRORHwQcXMOr7v-9" target="Qv5NDMWRORHwQcXMOr7v-11">
          <mxGeometry relative="1" as="geometry" />
        </mxCell>
        <mxCell id="Qv5NDMWRORHwQcXMOr7v-9" value="计算「&lt;span style=&quot;background-color: transparent; color: light-dark(rgb(0, 0, 0), rgb(255, 255, 255));&quot;&gt;(n - 1) &amp;amp; hash」&lt;/span&gt;&lt;div&gt;&lt;span style=&quot;background-color: transparent; color: light-dark(rgb(0, 0, 0), rgb(255, 255, 255));&quot;&gt;是否有值&lt;/span&gt;&lt;/div&gt;" style="whiteSpace=wrap;html=1;rounded=1;" vertex="1" parent="1">
          <mxGeometry x="430" y="285" width="150" height="60" as="geometry" />
        </mxCell>
        <mxCell id="Qv5NDMWRORHwQcXMOr7v-14" value="" style="edgeStyle=orthogonalEdgeStyle;rounded=0;orthogonalLoop=1;jettySize=auto;html=1;" edge="1" parent="1" source="Qv5NDMWRORHwQcXMOr7v-11" target="Qv5NDMWRORHwQcXMOr7v-13">
          <mxGeometry relative="1" as="geometry" />
        </mxCell>
        <mxCell id="Qv5NDMWRORHwQcXMOr7v-25" value="否" style="edgeLabel;html=1;align=center;verticalAlign=middle;resizable=0;points=[];" vertex="1" connectable="0" parent="Qv5NDMWRORHwQcXMOr7v-14">
          <mxGeometry x="-0.0537" y="-1" relative="1" as="geometry">
            <mxPoint x="-1" y="-1" as="offset" />
          </mxGeometry>
        </mxCell>
        <mxCell id="Qv5NDMWRORHwQcXMOr7v-18" value="" style="edgeStyle=orthogonalEdgeStyle;rounded=0;orthogonalLoop=1;jettySize=auto;html=1;" edge="1" parent="1" source="Qv5NDMWRORHwQcXMOr7v-11" target="Qv5NDMWRORHwQcXMOr7v-17">
          <mxGeometry relative="1" as="geometry" />
        </mxCell>
        <mxCell id="Qv5NDMWRORHwQcXMOr7v-26" value="是" style="edgeLabel;html=1;align=center;verticalAlign=middle;resizable=0;points=[];" vertex="1" connectable="0" parent="Qv5NDMWRORHwQcXMOr7v-18">
          <mxGeometry x="-0.025" relative="1" as="geometry">
            <mxPoint x="-1" y="-1" as="offset" />
          </mxGeometry>
        </mxCell>
        <mxCell id="Qv5NDMWRORHwQcXMOr7v-11" value="指定位置存在数据？" style="rhombus;whiteSpace=wrap;html=1;rounded=1;" vertex="1" parent="1">
          <mxGeometry x="695" y="290" width="165" height="50" as="geometry" />
        </mxCell>
        <mxCell id="Qv5NDMWRORHwQcXMOr7v-13" value="存放数据" style="whiteSpace=wrap;html=1;rounded=1;" vertex="1" parent="1">
          <mxGeometry x="962.5" y="285" width="120" height="60" as="geometry" />
        </mxCell>
        <mxCell id="Qv5NDMWRORHwQcXMOr7v-20" value="" style="edgeStyle=orthogonalEdgeStyle;rounded=0;orthogonalLoop=1;jettySize=auto;html=1;" edge="1" parent="1" source="Qv5NDMWRORHwQcXMOr7v-17" target="Qv5NDMWRORHwQcXMOr7v-19">
          <mxGeometry relative="1" as="geometry" />
        </mxCell>
        <mxCell id="Qv5NDMWRORHwQcXMOr7v-27" value="是" style="edgeLabel;html=1;align=center;verticalAlign=middle;resizable=0;points=[];" vertex="1" connectable="0" parent="Qv5NDMWRORHwQcXMOr7v-20">
          <mxGeometry x="-0.0595" y="-2" relative="1" as="geometry">
            <mxPoint y="-5" as="offset" />
          </mxGeometry>
        </mxCell>
        <mxCell id="Qv5NDMWRORHwQcXMOr7v-24" value="" style="edgeStyle=orthogonalEdgeStyle;rounded=0;orthogonalLoop=1;jettySize=auto;html=1;" edge="1" parent="1" source="Qv5NDMWRORHwQcXMOr7v-17" target="Qv5NDMWRORHwQcXMOr7v-23">
          <mxGeometry relative="1" as="geometry" />
        </mxCell>
        <mxCell id="Qv5NDMWRORHwQcXMOr7v-17" value="key 是否相等" style="rhombus;whiteSpace=wrap;html=1;rounded=1;" vertex="1" parent="1">
          <mxGeometry x="705" y="420" width="145" height="50" as="geometry" />
        </mxCell>
        <mxCell id="Qv5NDMWRORHwQcXMOr7v-19" value="覆盖 value&lt;div&gt;返回旧值&lt;/div&gt;" style="whiteSpace=wrap;html=1;rounded=1;" vertex="1" parent="1">
          <mxGeometry x="942.5" y="415" width="120" height="60" as="geometry" />
        </mxCell>
        <mxCell id="Qv5NDMWRORHwQcXMOr7v-23" value="是否红黑树" style="rhombus;whiteSpace=wrap;html=1;rounded=1;" vertex="1" parent="1">
          <mxGeometry x="430" y="420" width="162.5" height="50" as="geometry" />
        </mxCell>
      </root>
    </mxGraphModel>
  </diagram>
</mxfile>
